<svg width="33" height="32" viewBox="0 0 33 32" fill="none" xmlns="http://www.w3.org/2000/svg">
<path d="M18.168 24.1439C16.3855 25.5242 15.0155 24.335 14.8615 24.191C14.5803 23.9243 14.1376 23.9325 13.8688 24.2116C13.5987 24.4914 13.6069 24.9368 13.8867 25.207C14.3638 25.6672 15.3028 26.21 16.455 26.21C17.2407 26.21 18.1247 25.958 19.03 25.2568C19.3373 25.0187 19.3937 24.5766 19.1558 24.2694C18.9173 23.962 18.4746 23.906 18.168 24.1439ZM11.5598 16.708C10.9768 16.708 10.5039 17.1806 10.5039 17.7639V19.1717C10.5039 19.755 10.9768 20.2276 11.5598 20.2276C12.1427 20.2276 12.6157 19.755 12.6157 19.1717V17.7639C12.6157 17.1806 12.1427 16.708 11.5598 16.708ZM20.7108 16.708C20.1278 16.708 19.6549 17.1806 19.6549 17.7639V19.1717C19.6549 19.755 20.1278 20.2276 20.7108 20.2276C21.2937 20.2276 21.7666 19.755 21.7666 19.1717V17.7639C21.7666 17.1806 21.2937 16.708 20.7108 16.708Z" fill="#04B45C"/>
<path d="M27.7497 14.2442C27.7497 8.24434 22.4868 2.98145 16.487 2.98145C10.4871 2.98145 5.22425 8.24434 5.22425 14.2442C4.44997 14.2442 3.81641 14.8777 3.81641 15.652V20.5795C3.81641 21.3538 4.44997 21.9873 5.22425 21.9873H5.92817C6.70245 21.9873 7.33601 21.3538 7.33601 20.5795V17.7638C7.34885 17.7638 7.36168 17.7634 7.3745 17.7628C12.8596 17.4652 16.7009 13.4677 18.5893 10.9568C19.7523 11.9616 22.8525 14.4096 25.8696 14.8841C25.7242 15.1055 25.638 15.3689 25.638 15.652V20.5795C25.638 20.9157 25.7623 21.2212 25.9609 21.464C25.6168 24.0492 23.3698 26.1468 19.2647 27.7061C19.146 27.2531 18.7357 26.9148 18.2468 26.9148H14.7272C14.1464 26.9148 13.6713 27.3899 13.6713 27.9706C13.6713 28.5514 14.1464 29.0265 14.7272 29.0265H18.2468C18.6367 29.0265 18.9751 28.8099 19.1579 28.4934C23.5632 26.8907 26.0693 24.6805 26.6073 21.91C26.7462 21.9562 26.8919 21.9873 27.0458 21.9873H27.7497C28.524 21.9873 29.1575 21.3538 29.1575 20.5795V15.652C29.1576 14.8777 28.524 14.2442 27.7497 14.2442ZM19.6409 7.99551C19.2999 7.80852 18.8716 7.93363 18.6854 8.27493C18.6435 8.35144 14.4068 15.943 7.33601 16.3536V15.652C7.33601 15.1205 7.03403 14.6609 6.59635 14.4214C6.6118 14.3634 6.63209 14.3071 6.63209 14.2442C6.63209 8.99434 11.2371 4.38929 16.487 4.38929C21.4957 4.38929 25.9072 8.58274 26.3029 13.527C23.5163 13.2022 20.3899 10.657 19.4041 9.797C19.7111 9.32595 19.8863 9.01232 19.92 8.9507C20.107 8.60971 19.9818 8.18214 19.6409 7.99551Z" fill="#04B45C"/>
</svg>
