<svg width="33" height="32" viewBox="0 0 33 32" fill="none" xmlns="http://www.w3.org/2000/svg">
<path d="M21.1549 31.3264C21.1549 31.6982 20.8535 31.9996 20.4816 31.9996H18.6504C18.643 31.9999 18.6357 32 18.6283 32C18.3779 32 18.1417 31.8593 18.0262 31.6282C18.0123 31.6003 18.0001 31.5713 17.9901 31.5414L16.1664 26.4528L14.3429 31.5415C14.3328 31.5713 14.3207 31.6002 14.3068 31.6279C14.2369 31.768 14.1225 31.875 13.9876 31.9375C13.9872 31.9377 13.9869 31.9378 13.9865 31.938L13.9862 31.9381C13.971 31.9452 13.9555 31.9516 13.9397 31.9575C13.8584 31.9878 13.77 32.0025 13.6826 31.9996H11.8511C11.4793 31.9996 11.1779 31.6982 11.1779 31.3264C11.1779 30.9546 11.4793 30.6532 11.8511 30.6532H13.2309L15.4931 24.3403V19.3729C15.4931 19.0011 15.7945 18.6997 16.1663 18.6997C16.5382 18.6997 16.8396 19.0011 16.8396 19.3729V24.3403L19.102 30.6532H20.4816C20.8535 30.6532 21.1549 30.9546 21.1549 31.3264ZM12.211 13.7283L8.68553 9.82708C8.43621 9.55121 8.01058 9.52959 7.73463 9.77898C7.45876 10.0283 7.43722 10.4539 7.68646 10.7298L11.2119 14.6311C12.2921 15.8266 13.4652 17.0118 14.8819 17.2276C15.1599 17.27 15.9691 17.2692 16.2227 17.2681C16.2815 17.2684 16.3385 17.2685 16.3937 17.2685C16.9174 17.2685 17.2726 17.2549 17.451 17.2277C18.8676 17.012 20.0407 15.8267 21.1208 14.6313L24.6464 10.7299C24.8956 10.4541 24.8741 10.0284 24.5982 9.77913C24.3223 9.52989 23.8967 9.55136 23.6473 9.82723L20.1216 13.7286C19.2446 14.6994 18.2269 15.7477 17.2484 15.8967C17.1817 15.9068 16.8847 15.9253 16.2368 15.9218C16.2321 15.9217 16.2274 15.9217 16.2227 15.9217C16.218 15.9217 16.2133 15.9217 16.2087 15.9218C15.5843 15.9249 15.1692 15.9086 15.0848 15.8966C14.1059 15.7474 13.0882 14.6992 12.211 13.7283ZM30.5143 12.9099C30.5143 11.0402 29.7723 9.25319 28.425 7.87816C27.2089 6.63704 25.5941 5.82647 23.836 5.56578C22.9403 2.31276 19.7947 0 16.1663 0C12.538 0 9.39249 2.31276 8.49665 5.56578C6.73863 5.82647 5.12394 6.63704 3.90787 7.87824C2.56074 9.25319 1.81885 11.0402 1.81885 12.9099C1.81885 14.9744 2.72426 16.9262 4.31801 18.3303C4.21606 18.7695 4.16452 19.2192 4.16452 19.6725C4.16452 23.133 7.16082 25.9483 10.8437 25.9483C11.5576 25.9483 12.2606 25.8428 12.9332 25.6349C13.2884 25.5251 13.4873 25.1481 13.3775 24.7928C13.2676 24.4376 12.8903 24.2388 12.5355 24.3485C11.9918 24.5166 11.4226 24.6018 10.8437 24.6018C7.90316 24.6018 5.51097 22.3905 5.51097 19.6725C5.51097 19.2029 5.58241 18.7385 5.72326 18.2921C5.80771 18.0246 5.71735 17.7327 5.49653 17.5597C4.01499 16.3985 3.1653 14.7037 3.1653 12.9099C3.1653 9.75691 5.71757 7.15145 9.10218 6.84925C9.39915 6.82277 9.6433 6.60397 9.70217 6.31172C10.2821 3.43465 13.0007 1.34645 16.1663 1.34645C19.332 1.34645 22.0506 3.43465 22.6304 6.31172C22.6893 6.60397 22.9335 6.82277 23.2304 6.84925C26.6153 7.15153 29.1678 9.75699 29.1678 12.9099C29.1678 14.7036 28.318 16.3984 26.8364 17.5597C26.6156 17.7327 26.5253 18.0244 26.6096 18.2918C26.7504 18.7389 26.8218 19.2034 26.8218 19.6725C26.8218 22.3905 24.4296 24.6018 21.4891 24.6018C20.9103 24.6018 20.341 24.5166 19.7973 24.3485C19.4418 24.2388 19.065 24.4376 18.9552 24.7929C18.8454 25.1481 19.0443 25.5251 19.3995 25.6349C20.0722 25.8428 20.7753 25.9482 21.4891 25.9482C25.1719 25.9482 28.1682 23.1329 28.1682 19.6724C28.1682 19.2194 28.1168 18.7698 28.0148 18.3303C29.6089 16.9262 30.5143 14.9745 30.5143 12.9099ZM16.1663 14.1947C14.596 14.1947 13.3184 12.9171 13.3184 11.3468C13.3184 9.77644 14.596 8.49888 16.1663 8.49888C17.7368 8.49888 19.0144 9.77644 19.0144 11.3468C19.0144 12.9171 17.7368 14.1947 16.1663 14.1947ZM16.1663 12.8483C16.9943 12.8483 17.6679 12.1748 17.6679 11.3468C17.6679 10.5189 16.9943 9.84533 16.1663 9.84533C15.3385 9.84533 14.6649 10.5189 14.6649 11.3468C14.6649 12.1748 15.3385 12.8483 16.1663 12.8483Z" fill="#04B45C"/>
</svg>
