<svg width="33" height="32" viewBox="0 0 33 32" fill="none" xmlns="http://www.w3.org/2000/svg">
<g clip-path="url(#clip0_17_627)">
<path d="M32.4111 0.156405C32.2025 -0.0521351 31.8654 -0.0521351 31.6569 0.156405L29.6798 2.13354H17.2617L1.65056 17.8733C1.29535 18.2285 1.09961 18.7016 1.09961 19.204C1.09961 19.7064 1.29535 20.1795 1.65056 20.5347L12.5661 31.4502C12.9325 31.8167 13.4131 32.0001 13.8947 32.0001C14.3785 32.0001 14.8622 31.8151 15.2329 31.4449L30.4339 15.8332V2.8877L32.4111 0.910564C32.6196 0.702023 32.6196 0.364945 32.4111 0.156405ZM29.3672 15.4001L14.4734 30.6961C14.1555 31.014 13.6382 31.014 13.3203 30.6961L2.40472 19.7805C2.08684 19.4626 2.08684 18.9453 2.40632 18.6258L17.7066 3.20024H28.6131L26.0354 5.77793C25.6135 5.49845 25.1095 5.33364 24.5671 5.33364C23.0966 5.33364 21.9003 6.52995 21.9003 8.0004C21.9003 9.47085 23.0966 10.6672 24.5671 10.6672C26.0375 10.6672 27.2338 9.47085 27.2338 8.0004C27.2338 7.45798 27.069 6.95396 26.7895 6.53208L29.3672 3.9544V15.4001ZM26.1671 8.0004C26.1671 8.88256 25.4492 9.60045 24.5671 9.60045C23.6849 9.60045 22.967 8.88256 22.967 8.0004C22.967 7.11824 23.6849 6.40035 24.5671 6.40035C24.8135 6.40035 25.0439 6.46115 25.2524 6.56088L24.19 7.62332C23.9814 7.83186 23.9814 8.16894 24.19 8.37748C24.294 8.48148 24.4305 8.53375 24.5671 8.53375C24.7036 8.53375 24.8401 8.48148 24.9441 8.37748L26.0066 7.31504C26.1068 7.52358 26.1671 7.75399 26.1671 8.0004Z" fill="#04B45C"/>
<path d="M23.3654 16.6835L17.7087 22.3408C17.5001 22.5493 17.5001 22.8864 17.7087 23.095C17.8127 23.199 17.9492 23.2512 18.0857 23.2512C18.2223 23.2512 18.3588 23.199 18.4628 23.095L24.1195 17.4377C24.3281 17.2292 24.3281 16.8921 24.1195 16.6835C23.911 16.475 23.5739 16.4755 23.3654 16.6835Z" fill="#04B45C"/>
<path d="M25.2499 14.7955C25.1534 14.8963 25.0952 15.0349 25.0952 15.1741C25.0952 15.3182 25.1534 15.4563 25.2499 15.5528C25.3507 15.6536 25.4894 15.7075 25.6286 15.7075C25.7672 15.7075 25.9059 15.6536 26.0014 15.5528C26.1027 15.4563 26.1619 15.3182 26.1619 15.1741C26.1619 15.0349 26.1032 14.8963 26.0014 14.7955C25.804 14.5981 25.4526 14.5981 25.2499 14.7955Z" fill="#04B45C"/>
<path d="M20.7255 10.2729C20.9341 10.0643 20.9341 9.72725 20.7255 9.51871C20.517 9.31017 20.1799 9.31017 19.9714 9.51871L14.3141 15.176C14.1056 15.3845 14.1056 15.7216 14.3141 15.9301C14.4181 16.0341 14.5547 16.0864 14.6912 16.0864C14.8277 16.0864 14.9643 16.0341 15.0683 15.9301L20.7255 10.2729Z" fill="#04B45C"/>
<path d="M18.84 16.6838C18.944 16.7878 19.0805 16.8401 19.2171 16.8401C19.3536 16.8401 19.4902 16.7878 19.5942 16.6838L23.3655 12.9125C23.574 12.704 23.574 12.3669 23.3655 12.1584C23.1569 11.9498 22.8199 11.9498 22.6113 12.1584L18.84 15.9297C18.6315 16.1382 18.6315 16.4758 18.84 16.6838Z" fill="#04B45C"/>
<path d="M15.8227 18.9462L15.0685 19.7004C14.86 19.9089 14.86 20.246 15.0685 20.4546C15.1725 20.5586 15.3091 20.6108 15.4456 20.6108C15.5821 20.6108 15.7187 20.5586 15.8227 20.4546L16.5768 19.7004C16.7854 19.4919 16.7854 19.1548 16.5768 18.9462C16.3683 18.7377 16.0307 18.7382 15.8227 18.9462Z" fill="#04B45C"/>
<path d="M10.1653 15.331C10.3019 15.331 10.4384 15.2787 10.5424 15.1747L16.1991 9.51799C16.4077 9.30945 16.4077 8.97237 16.1991 8.76383C15.9906 8.55529 15.6535 8.55529 15.445 8.76383L9.78824 14.4205C9.5797 14.6291 9.5797 14.9662 9.78824 15.1747C9.89224 15.2787 10.0288 15.331 10.1653 15.331Z" fill="#04B45C"/>
<path d="M17.7082 7.78691C17.8468 7.78691 17.986 7.73358 18.0868 7.63224C18.1834 7.53144 18.2415 7.3981 18.2415 7.25356C18.2415 7.11489 18.1834 6.97622 18.0815 6.87488C17.8842 6.67754 17.5322 6.67754 17.3295 6.88022C17.2335 6.97675 17.1748 7.11489 17.1748 7.25356C17.1748 7.39223 17.2335 7.53144 17.3295 7.63224C17.4308 7.73358 17.5695 7.78691 17.7082 7.78691Z" fill="#04B45C"/>
<path d="M12.8065 16.6832C12.7052 16.784 12.6519 16.9173 12.6519 17.0618C12.6519 17.2058 12.7052 17.3392 12.8065 17.4347C12.9025 17.536 13.0407 17.5952 13.1852 17.5952C13.3239 17.5952 13.4625 17.5365 13.558 17.4405C13.6594 17.3392 13.7186 17.2005 13.7186 17.0618C13.7186 16.9226 13.6599 16.784 13.558 16.6832C13.3612 16.4858 13.0033 16.4858 12.8065 16.6832Z" fill="#04B45C"/>
<path d="M18.0868 18.1925C18.1834 18.0965 18.2415 17.9583 18.2415 17.8138C18.2415 17.6751 18.1834 17.5365 18.0868 17.4351C17.8842 17.2378 17.5322 17.2378 17.3295 17.4351C17.2335 17.5365 17.1748 17.6751 17.1748 17.8138C17.1748 17.9583 17.2335 18.0917 17.3295 18.1925C17.4308 18.2938 17.5695 18.3471 17.7082 18.3471C17.8468 18.3471 17.9855 18.2943 18.0868 18.1925Z" fill="#04B45C"/>
<path d="M13.981 25.4016C14.309 24.9061 14.4658 24.313 14.4151 23.7098C14.3735 23.2063 14.1309 22.7514 13.7324 22.4282C13.3244 22.098 12.789 21.9465 12.2721 22.0116L10.7777 22.1983L8.72642 20.147C9.32057 19.8649 10.0518 19.9635 10.543 20.4548C10.7516 20.6633 11.0886 20.6633 11.2972 20.4548C11.5057 20.2462 11.5057 19.9091 11.2972 19.7006C10.3867 18.7902 8.97602 18.6776 7.94079 19.3619L7.52531 18.9464C7.31677 18.7379 6.97969 18.7379 6.77115 18.9464C6.56261 19.155 6.56261 19.4921 6.77115 19.7006L7.1877 20.1172C6.86022 20.6121 6.70342 21.2057 6.75408 21.8089C6.79569 22.3119 7.03836 22.7674 7.43624 23.09C7.84425 23.4202 8.37654 23.5722 8.89709 23.5077L10.3915 23.321L12.4375 25.3669C11.8449 25.6341 11.0988 25.5365 10.6262 25.064C10.4177 24.8554 10.0806 24.8554 9.87205 25.064C9.66351 25.272 9.66351 25.6096 9.87205 25.8181C10.375 26.3216 11.0449 26.5995 11.7575 26.5995C12.2887 26.5995 12.7954 26.4443 13.2279 26.1574L13.5596 26.4891C13.6636 26.5931 13.8002 26.6454 13.9367 26.6454C14.0733 26.6454 14.2098 26.5931 14.3138 26.4891C14.5223 26.2806 14.5223 25.9435 14.3138 25.7349L13.981 25.4016ZM8.76482 22.4495C8.53121 22.4783 8.29067 22.4111 8.10826 22.2618C7.93812 22.1231 7.83412 21.9311 7.81652 21.7199C7.79305 21.434 7.85385 21.1551 7.97386 20.9028L9.43631 22.3652L8.76482 22.4495ZM12.4044 23.0698C12.6353 23.0383 12.877 23.1082 13.0599 23.257C13.2306 23.3957 13.3346 23.5877 13.3522 23.7989C13.3756 24.0848 13.3148 24.3637 13.1943 24.616L11.7324 23.1541L12.4044 23.0698Z" fill="#04B45C"/>
</g>
<defs>
<clipPath id="clip0_17_627">
<rect width="32" height="32" fill="white" transform="translate(0.833496)"/>
</clipPath>
</defs>
</svg>
