<svg width="33" height="32" viewBox="0 0 33 32" fill="none" xmlns="http://www.w3.org/2000/svg">
<path d="M6.39894 6.57599C6.39768 6.39756 6.49161 6.23198 6.64542 6.14151L7.23001 5.79763L7.23003 5.79762C9.27219 4.59647 10.4524 4.08315 12.1398 3.68327L12.1399 3.68327C15.1983 2.95873 17.5533 2.98195 20.6242 3.76588L20.6242 3.76589C21.2046 3.91408 22.0651 4.24647 22.9025 4.61971C23.7428 4.99424 24.5996 5.42759 25.1721 5.79094L25.7019 6.12706C25.8475 6.21947 25.9353 6.38043 25.934 6.55292L25.8922 12.239C25.8922 12.239 25.8922 12.239 25.8922 12.2391C25.8528 17.6513 25.8454 18.009 25.5896 18.9359L6.39894 6.57599ZM6.39894 6.57599L6.43844 12.1955L6.39894 6.57599Z" stroke="#04B45C" stroke-linecap="round" stroke-linejoin="round"/>
<mask id="path-2-outside-1_17_644" maskUnits="userSpaceOnUse" x="9.51074" y="9" width="14" height="11" fill="black">
<rect fill="white" x="9.51074" y="9" width="14" height="11"/>
<path d="M11.6295 15.3788C11.6295 15.3788 13.6156 13.5032 16.2708 13.4855C18.926 13.4678 21.0954 15.3788 21.0954 15.3788M10.5107 11.8935C10.5107 11.8935 12.9832 10.022 16.2708 10.0002C19.5586 9.97819 22.2142 11.8935 22.2142 11.8935M13.4941 18.118C13.4941 18.118 14.7808 16.9795 16.271 16.9707C17.7608 16.9618 19.231 18.118 19.231 18.118"/>
</mask>
<path d="M10.9429 14.6517C10.5414 15.0309 10.5233 15.6638 10.9024 16.0653C11.2816 16.4669 11.9145 16.485 12.3161 16.1058L10.9429 14.6517ZM20.4344 16.1292C20.8489 16.4942 21.4808 16.4542 21.8458 16.0398C22.2109 15.6253 22.1708 14.9934 21.7564 14.6284L20.4344 16.1292ZM9.90721 11.0961C9.46685 11.4295 9.38008 12.0567 9.71341 12.497C10.0467 12.9374 10.6739 13.0241 11.1143 12.6908L9.90721 11.0961ZM16.2708 10.0002L16.2774 11.0002L16.2775 11.0002L16.2708 10.0002ZM21.6292 12.7045C22.0771 13.0276 22.7022 12.9264 23.0252 12.4785C23.3483 12.0305 23.2471 11.4055 22.7991 11.0824L21.6292 12.7045ZM12.8314 17.3691C12.4178 17.7351 12.3792 18.3671 12.7451 18.7807C13.1111 19.1943 13.7431 19.2329 14.1567 18.867L12.8314 17.3691ZM16.271 16.9707L16.2769 17.9707L16.277 17.9707L16.271 16.9707ZM18.6129 18.9041C19.047 19.2455 19.6757 19.1703 20.0171 18.7362C20.3585 18.3021 20.2833 17.6734 19.8492 17.332L18.6129 18.9041ZM11.6295 15.3788C12.3161 16.1058 12.3158 16.106 12.3156 16.1062C12.3156 16.1063 12.3153 16.1065 12.3152 16.1066C12.315 16.1069 12.3147 16.1071 12.3145 16.1073C12.3141 16.1076 12.3139 16.1079 12.3137 16.108C12.3134 16.1083 12.3135 16.1082 12.3141 16.1077C12.3153 16.1065 12.3184 16.1038 12.3232 16.0994C12.3328 16.0907 12.3496 16.0757 12.3732 16.0554C12.4204 16.0146 12.4946 15.9527 12.5931 15.8764C12.7909 15.7234 13.0829 15.5161 13.4488 15.308C14.1894 14.8869 15.1795 14.4928 16.2775 14.4854L16.2641 12.4855C14.707 12.4959 13.3764 13.0484 12.4601 13.5695C11.9976 13.8325 11.6271 14.0952 11.3695 14.2944C11.2404 14.3943 11.1386 14.479 11.0669 14.5409C11.0309 14.5719 11.0025 14.5972 10.9817 14.616C10.9713 14.6254 10.9629 14.6331 10.9564 14.6391C10.9532 14.6421 10.9504 14.6447 10.9482 14.6468C10.947 14.6478 10.946 14.6488 10.9452 14.6496C10.9447 14.65 10.9443 14.6504 10.9439 14.6507C10.9438 14.6509 10.9435 14.6512 10.9434 14.6512C10.9432 14.6515 10.9429 14.6517 11.6295 15.3788ZM16.2775 14.4854C17.3721 14.4781 18.4069 14.872 19.201 15.3039C19.5919 15.5166 19.9085 15.7297 20.1251 15.8879C20.233 15.9668 20.315 16.0312 20.3678 16.0739C20.3942 16.0953 20.4132 16.1112 20.4245 16.1207C20.4301 16.1255 20.4338 16.1286 20.4355 16.1301C20.4363 16.1308 20.4366 16.1311 20.4365 16.1309C20.4364 16.1309 20.4362 16.1307 20.4358 16.1304C20.4357 16.1302 20.4355 16.1301 20.4352 16.1299C20.4351 16.1298 20.4349 16.1296 20.4348 16.1295C20.4346 16.1293 20.4344 16.1292 21.0954 15.3788C21.7564 14.6284 21.7562 14.6282 21.7559 14.628C21.7559 14.6279 21.7556 14.6277 21.7554 14.6275C21.7551 14.6272 21.7547 14.6268 21.7542 14.6264C21.7534 14.6257 21.7523 14.6248 21.7512 14.6238C21.7489 14.6218 21.7461 14.6194 21.7428 14.6165C21.7361 14.6107 21.7272 14.6031 21.7163 14.5939C21.6945 14.5754 21.6643 14.5503 21.6262 14.5194C21.55 14.4578 21.4418 14.373 21.3048 14.273C21.0316 14.0734 20.64 13.8099 20.1566 13.547C19.2022 13.0279 17.8247 12.4751 16.2641 12.4855L16.2775 14.4854ZM10.5107 11.8935C11.1143 12.6908 11.114 12.691 11.1138 12.6912C11.1137 12.6912 11.1135 12.6914 11.1134 12.6915C11.1131 12.6917 11.1129 12.6918 11.1127 12.692C11.1124 12.6923 11.1122 12.6924 11.1121 12.6925C11.1119 12.6926 11.1124 12.6923 11.1134 12.6915C11.1154 12.69 11.1197 12.6868 11.1263 12.682C11.1395 12.6725 11.1616 12.6566 11.1924 12.6354C11.2538 12.5929 11.3494 12.5288 11.4759 12.4503C11.7293 12.293 12.1037 12.0794 12.5738 11.8644C13.5198 11.4318 14.8175 11.0099 16.2774 11.0002L16.2642 9.00021C14.4364 9.01234 12.8541 9.53702 11.742 10.0456C11.183 10.3012 10.7339 10.5569 10.421 10.7511C10.2643 10.8484 10.141 10.9308 10.0544 10.9907C10.0111 11.0206 9.97695 11.045 9.95229 11.0629C9.93996 11.0718 9.93001 11.0791 9.92248 11.0847C9.91871 11.0875 9.91555 11.0899 9.91301 11.0918C9.91173 11.0927 9.91061 11.0936 9.90965 11.0943C9.90916 11.0947 9.90872 11.095 9.90831 11.0953C9.90811 11.0955 9.90783 11.0957 9.90773 11.0958C9.90746 11.096 9.90721 11.0961 10.5107 11.8935ZM16.2775 11.0002C17.7324 10.9904 19.0736 11.4114 20.0705 11.8529C20.5648 12.0719 20.9635 12.291 21.2354 12.4533C21.3711 12.5343 21.4745 12.6006 21.5416 12.645C21.5751 12.6672 21.5995 12.6839 21.6143 12.6941C21.6217 12.6993 21.6267 12.7028 21.6292 12.7045C21.6304 12.7054 21.6311 12.7059 21.6311 12.7059C21.6311 12.7059 21.6309 12.7058 21.6306 12.7056C21.6305 12.7054 21.6303 12.7053 21.63 12.7051C21.6299 12.705 21.6297 12.7049 21.6296 12.7049C21.6294 12.7047 21.6292 12.7045 22.2142 11.8935C22.7991 11.0824 22.7989 11.0823 22.7986 11.0821C22.7985 11.082 22.7983 11.0818 22.7981 11.0817C22.7977 11.0814 22.7972 11.0811 22.7968 11.0807C22.7958 11.08 22.7947 11.0792 22.7934 11.0783C22.7908 11.0765 22.7876 11.0742 22.7837 11.0715C22.776 11.066 22.7657 11.0587 22.7528 11.0498C22.7271 11.032 22.6912 11.0076 22.6457 10.9774C22.5547 10.9172 22.4249 10.8341 22.2603 10.7358C21.9316 10.5397 21.4609 10.2814 20.8804 10.0243C19.7276 9.51365 18.0971 8.98794 16.2641 9.00021L16.2775 11.0002ZM13.4941 18.118C14.1567 18.867 14.1565 18.8671 14.1563 18.8673C14.1563 18.8674 14.1561 18.8675 14.1559 18.8676C14.1557 18.8679 14.1555 18.868 14.1553 18.8682C14.1549 18.8686 14.1545 18.8689 14.1543 18.8691C14.1538 18.8696 14.1535 18.8698 14.1536 18.8697C14.1538 18.8696 14.1551 18.8684 14.1575 18.8664C14.1623 18.8622 14.1717 18.8543 14.1853 18.8432C14.2125 18.821 14.2563 18.7862 14.3146 18.7428C14.4321 18.6556 14.6039 18.5374 14.814 18.4192C15.2498 18.1741 15.7712 17.9737 16.2769 17.9707L16.2651 15.9708C15.2806 15.9766 14.4136 16.3498 13.8335 16.6761C13.5355 16.8437 13.2926 17.0106 13.1222 17.1372C13.0366 17.2007 12.9683 17.2549 12.9193 17.2949C12.8948 17.315 12.875 17.3316 12.8603 17.3441C12.8529 17.3504 12.8468 17.3556 12.842 17.3598C12.8396 17.3619 12.8375 17.3637 12.8357 17.3653C12.8349 17.3661 12.8341 17.3668 12.8333 17.3674C12.833 17.3677 12.8326 17.368 12.8323 17.3683C12.8322 17.3684 12.8319 17.3686 12.8319 17.3687C12.8316 17.3689 12.8314 17.3691 13.4941 18.118ZM16.277 17.9707C16.7844 17.9677 17.3532 18.1708 17.8484 18.4283C18.0852 18.5514 18.2831 18.6753 18.4203 18.7675C18.4885 18.8133 18.5406 18.8506 18.5738 18.8749C18.5904 18.8871 18.6021 18.8959 18.6088 18.901C18.6121 18.9035 18.6141 18.9051 18.6148 18.9056C18.6152 18.9059 18.6152 18.9059 18.6149 18.9056C18.6147 18.9055 18.6145 18.9053 18.6141 18.9051C18.614 18.9049 18.6138 18.9048 18.6136 18.9046C18.6134 18.9045 18.6133 18.9044 18.6132 18.9044C18.613 18.9042 18.6129 18.9041 19.231 18.118C19.8492 17.332 19.849 17.3318 19.8488 17.3317C19.8487 17.3316 19.8485 17.3314 19.8484 17.3313C19.8481 17.3311 19.8477 17.3308 19.8474 17.3306C19.8467 17.33 19.8459 17.3294 19.845 17.3287C19.8433 17.3274 19.8412 17.3257 19.8387 17.3238C19.8337 17.32 19.8273 17.315 19.8195 17.3091C19.8039 17.2972 19.7826 17.2813 19.7561 17.2618C19.7031 17.223 19.6287 17.1699 19.5357 17.1075C19.3507 16.9832 19.0879 16.8186 18.771 16.6538C18.1586 16.3354 17.2474 15.9649 16.265 15.9708L16.277 17.9707Z" fill="#04B45C" mask="url(#path-2-outside-1_17_644)"/>
<path d="M16.3623 21.7607C17.1346 21.7607 17.7607 21.1346 17.7607 20.3623C17.7607 19.59 17.1346 18.9639 16.3623 18.9639C15.59 18.9639 14.9639 19.59 14.9639 20.3623C14.9639 21.1346 15.59 21.7607 16.3623 21.7607Z" fill="#04B45C"/>
</svg>
